/* XPM */
static char * C:\Users\ack\Documents\42\cub3d\textures\ea_xpm[] = {
"32 32 49 1",
" 	c #FF00FF",
".	c #C500C5",
"+	c #000000",
"@	c #E300E3",
"#	c #8B008B",
"$	c #9A009A",
"%	c #F200F2",
"&	c #F300F3",
"*	c #160016",
"=	c #5F005F",
"-	c #320032",
";	c #F900F9",
">	c #C400C4",
",	c #0D000D",
"'	c #D700D7",
")	c #CE00CE",
"!	c #7C007C",
"~	c #800080",
"{	c #FE00FE",
"]	c #550055",
"^	c #8C008C",
"/	c #ED00ED",
"(	c #C000C0",
"_	c #A700A7",
":	c #F400F4",
"<	c #BB00BB",
"[	c #EC00EC",
"}	c #DA00DA",
"|	c #690069",
"1	c #6A006A",
"2	c #FB00FB",
"3	c #380038",
"4	c #7D007D",
"5	c #E600E6",
"6	c #B400B4",
"7	c #980098",
"8	c #EE00EE",
"9	c #B000B0",
"0	c #BC00BC",
"a	c #560056",
"b	c #8D008D",
"c	c #6C006C",
"d	c #DE00DE",
"e	c #D300D3",
"f	c #BF00BF",
"g	c #E700E7",
"h	c #A500A5",
"i	c #470047",
"j	c #B200B2",
"                                ",
"                                ",
"                                ",
"                                ",
"                                ",
"                                ",
"                                ",
"                                ",
"                                ",
"                                ",
"      .+++++++@    #+$          ",
"      .+%         &*=-;         ",
"      .+%         >,'+)         ",
"      .+%         !~{]^         ",
"      .+%        /+( _*:        ",
"      .+++++++@  <+[ }+.        ",
"      .+%        |1  234        ",
"      .+%       5+6   7+8       ",
"      .+%       9+++++++0       ",
"      .+%      {ab     1c       ",
"      .+%      d+e     f+g      ",
"      .+++++++@hi2     %*j      ",
"                                ",
"                                ",
"                                ",
"                                ",
"                                ",
"                                ",
"                                ",
"                                ",
"                                ",
"                                "};
