/* XPM */
static char * C:\Users\ack\Documents\42\cub3d\textures\no_xpm[] = {
"32 32 66 1",
" 	c #FF00FF",
".	c #FD00FD",
"+	c #EB00EB",
"@	c #E400E4",
"#	c #F200F2",
"$	c #C500C5",
"%	c #000000",
"&	c #BB00BB",
"*	c #470047",
"=	c #770077",
"-	c #DF00DF",
";	c #680068",
">	c #8C008C",
",	c #990099",
"'	c #220022",
")	c #BE00BE",
"!	c #F300F3",
"~	c #FC00FC",
"{	c #E700E7",
"]	c #8A008A",
"^	c #1C001C",
"/	c #D900D9",
"(	c #D000D0",
"_	c #E100E1",
":	c #D500D5",
"<	c #C900C9",
"[	c #7C007C",
"}	c #510051",
"|	c #FB00FB",
"1	c #720072",
"2	c #850085",
"3	c #5A005A",
"4	c #FE00FE",
"5	c #D400D4",
"6	c #D600D6",
"7	c #DD00DD",
"8	c #380038",
"9	c #9F009F",
"0	c #F900F9",
"a	c #0D000D",
"b	c #AF00AF",
"c	c #790079",
"d	c #7F007F",
"e	c #F800F8",
"f	c #B400B4",
"g	c #450045",
"h	c #9B009B",
"i	c #DA00DA",
"j	c #800080",
"k	c #350035",
"l	c #A000A0",
"m	c #FA00FA",
"n	c #DE00DE",
"o	c #870087",
"p	c #700070",
"q	c #D300D3",
"r	c #C800C8",
"s	c #7E007E",
"t	c #530053",
"u	c #E200E2",
"v	c #980098",
"w	c #8E008E",
"x	c #B900B9",
"y	c #750075",
"z	c #EA00EA",
"A	c #F100F1",
"                                ",
"                                ",
"                                ",
"                                ",
"                                ",
"                                ",
"                                ",
"                                ",
"                                ",
"                   .+@#         ",
"    $%%@    %$   .&*%%%=-       ",
"    $%;>    %$   ,')!~{]^/      ",
"    $%(%_   %$  :%<    ~[}|     ",
"    $%~12   %$  >34     /%5     ",
"    $%.6%7  %$  89      0ab     ",
"    $%. cd  %$ e%f       gh     ",
"    $%. i%/ %$ e%f       *h     ",
"    $%.  j= %$  kl      mab     ",
"    $%.  n%:%$  ]34     i%:     ",
"    $%.   op%$  q%r    .st|     ",
"    $%.   u%%$   v^)!~{>'i      ",
"    $%.    w%$   .xg%%%y-       ",
"                   .z@A         ",
"                                ",
"                                ",
"                                ",
"                                ",
"                                ",
"                                ",
"                                ",
"                                ",
"                                "};
