/* XPM */
static char * C:\Users\ack\Documents\42\cub3d\textures\so_xpm[] = {
"32 32 85 1",
" 	c #FF00FF",
".	c #FD00FD",
"+	c #EB00EB",
"@	c #E400E4",
"#	c #F200F2",
"$	c #EE00EE",
"%	c #A500A5",
"&	c #660066",
"*	c #2A002A",
"=	c #470047",
"-	c #830083",
";	c #C300C3",
">	c #F400F4",
",	c #BB00BB",
"'	c #000000",
")	c #770077",
"!	c #DF00DF",
"~	c #350035",
"{	c #9B009B",
"]	c #ED00ED",
"^	c #FB00FB",
"/	c #B900B9",
"(	c #B300B3",
"_	c #990099",
":	c #220022",
"<	c #BE00BE",
"[	c #F300F3",
"}	c #FC00FC",
"|	c #E700E7",
"1	c #8A008A",
"2	c #1C001C",
"3	c #D900D9",
"4	c #8C008C",
"5	c #5D005D",
"6	c #EC00EC",
"7	c #C400C4",
"8	c #D500D5",
"9	c #C900C9",
"0	c #7C007C",
"a	c #510051",
"b	c #710071",
"c	c #7D007D",
"d	c #5A005A",
"e	c #FE00FE",
"f	c #D400D4",
"g	c #0D000D",
"h	c #F800F8",
"i	c #380038",
"j	c #9F009F",
"k	c #F900F9",
"l	c #AF00AF",
"m	c #790079",
"n	c #690069",
"o	c #C600C6",
"p	c #F500F5",
"q	c #B400B4",
"r	c #450045",
"s	c #DE00DE",
"t	c #8D008D",
"u	c #4D004D",
"v	c #400040",
"w	c #490049",
"x	c #700070",
"y	c #A000A0",
"z	c #FA00FA",
"A	c #A200A2",
"B	c #260026",
"C	c #DA00DA",
"D	c #780078",
"E	c #D300D3",
"F	c #C800C8",
"G	c #7E007E",
"H	c #530053",
"I	c #3B003B",
"J	c #5F005F",
"K	c #F100F1",
"L	c #320032",
"M	c #E000E0",
"N	c #980098",
"O	c #E800E8",
"P	c #B200B2",
"Q	c #580058",
"R	c #F000F0",
"S	c #750075",
"T	c #EA00EA",
"                                ",
"                                ",
"                                ",
"                                ",
"                                ",
"                                ",
"                                ",
"                                ",
"                                ",
"                  .+@#          ",
"     $%&*=-;>   .,=''')!        ",
"    @~{]^]/~(   _:<[}|123       ",
"    45.    67  8'9    }0a^      ",
"    bc         4de     3'f      ",
"    %g7h       ij      kgl      ",
"    [m'gn{op  h'q       r{      ",
"     .sqtu'vs h'q       ={      ",
"          !wx  ~y      zgl      ",
"           AB  1de     C'8      ",
"    A^     0D  E'F    .GH^      ",
"    IJ9K^]%LM   N2<[}|4:C       ",
"    OPbi2Q%R    ./r'''S!        ",
"                  .T@K          ",
"                                ",
"                                ",
"                                ",
"                                ",
"                                ",
"                                ",
"                                ",
"                                ",
"                                "};
