/* XPM */
static char * C:\Users\ack\Documents\42\cub3d\textures\we_xpm[] = {
"32 32 76 1",
" 	c #FF00FF",
".	c #ED00ED",
"+	c #000000",
"@	c #C600C6",
"#	c #FE00FE",
"$	c #3D003D",
"%	c #6A006A",
"&	c #B600B6",
"*	c #380038",
"=	c #FC00FC",
"-	c #C500C5",
";	c #E300E3",
">	c #5A005A",
",	c #9A009A",
"'	c #E600E6",
")	c #F400F4",
"!	c #830083",
"~	c #8E008E",
"{	c #F200F2",
"]	c #A100A1",
"^	c #510051",
"/	c #C400C4",
"(	c #790079",
"_	c #320032",
":	c #D500D5",
"<	c #FB00FB",
"[	c #2A002A",
"}	c #BF00BF",
"|	c #CE00CE",
"1	c #EC00EC",
"2	c #970097",
"3	c #B500B5",
"4	c #890089",
"5	c #AE00AE",
"6	c #E000E0",
"7	c #E400E4",
"8	c #F000F0",
"9	c #CA00CA",
"0	c #4D004D",
"a	c #DA00DA",
"b	c #BB00BB",
"c	c #770077",
"d	c #BC00BC",
"e	c #FD00FD",
"f	c #630063",
"g	c #9F009F",
"h	c #EB00EB",
"i	c #160016",
"j	c #F800F8",
"k	c #8B008B",
"l	c #900090",
"m	c #A700A7",
"n	c #760076",
"o	c #DB00DB",
"p	c #C100C1",
"q	c #D100D1",
"r	c #EE00EE",
"s	c #850085",
"t	c #F300F3",
"u	c #5C005C",
"v	c #B900B9",
"w	c #820082",
"x	c #400040",
"y	c #6D006D",
"z	c #DE00DE",
"A	c #260026",
"B	c #8A008A",
"C	c #930093",
"D	c #AB00AB",
"E	c #690069",
"F	c #FA00FA",
"G	c #220022",
"H	c #C300C3",
"I	c #A600A6",
"J	c #810081",
"K	c #E700E7",
"                                ",
"                                ",
"                                ",
"                                ",
"                                ",
"                                ",
"                                ",
"                                ",
"                                ",
"                                ",
"   .+@   #$%    &*= -+++++++;   ",
"    >,   '++)   !~  -+{         ",
"    ]^   /(_:  <[}  -+{         ",
"    |+1  2345  6+7  -+{         ",
"    8+9  0abc  d$e  -+{         ",
"     fg hij6ij kl   -+++++++;   ",
"     m> 9n <[oe*p   -+{         ",
"     q+rg5  s37+'   -+{         ",
"     t+|u:  vwpx#   -+{         ",
"      ys+)  zABC    -+{         ",
"      D+E   FG+H    -+{         ",
"      :+I    J+K    -+++++++;   ",
"                                ",
"                                ",
"                                ",
"                                ",
"                                ",
"                                ",
"                                ",
"                                ",
"                                ",
"                                "};
